# xmcd
#
# Track frame offsets: 
#        150
#        26086
#        48519
#        78157
#        96119
#        118434
#        134681
#        154645
#        174145
#        193513
#        207639
#        223506
#        246779
#        268646
#        286136
#        303576
#
# Disc length: 4319 seconds
#
# Revision: 0
# Processed by: cddbd v1.5.2PL0 Copyright (c) Steve Scherf et al.
# Submitted via: ExactAudioCopy v0.95b4
#
DISCID=e810dd10
DTITLE=BB King - Deuces Wild
DYEAR=1997
DGENRE=Blues
TTITLE0=If You Love Me
TTITLE1=The Thrill Is Gone
TTITLE2=Rock Me Baby
TTITLE3=Please Send Me Someone To Love
TTITLE4=Baby I Love You 
TTITLE5=Ain't Nobody Home
TTITLE6=There Must Be A Better World Somewhere
TTITLE7=Confessin' The Blues
TTITLE8=Hummingbird
TTITLE9=Bring It home To Me
TTITLE10=Paying The Cost To Be The Boss
TTITLE11=Let The Good Times Roll
TTITLE12=Dangerous Mood
TTITLE13=Keep It Coming
TTITLE14=Cryin' Won't Help You Babe
TTITLE15=Night Life
EXTD=
EXTT0=
EXTT1=
EXTT2=
EXTT3=
EXTT4=
EXTT5=
EXTT6=
EXTT7=
EXTT8=
EXTT9=
EXTT10=
EXTT11=
EXTT12=
EXTT13=
EXTT14=
EXTT15=
PLAYORDER=
